<svg width="75" height="32" viewBox="0 0 75 32" fill="none" xmlns="http://www.w3.org/2000/svg">
<path d="M0.441406 24.9648V0.390625H13.2383V3.41406H3.5V11.2188H9.93359V14.2773H3.5V24.9648H0.441406ZM15.875 25V0.179688H19.0039V25H15.875ZM20.6562 5.98047H23.7852L29.1289 20.8516L25.5078 31.6797H22.5195L25.9648 20.8164L20.6562 5.98047ZM28.4258 14.1367L31.625 5.98047H34.7188L30.043 18.25H29.7266L28.4258 14.1367ZM35.1406 0.390625H38.2344L44.4922 21.7656L43.3672 25H42.2773L35.1406 0.390625ZM43.7188 13.4336L48.0781 0.390625H51.1719C50.9609 1.07031 50.082 3.78906 48.5352 8.54688C46.7305 14.0781 45.6992 17.2539 45.4414 18.0742H45.0898L43.7188 13.4336ZM52.9648 25V0.390625H56.0234V25H52.9648ZM58.9414 25V0.390625H62V25H58.9414ZM63.5117 13.0117L70.7188 0.390625H73.9531L66.7461 13.0117L74.0938 25H70.8945L63.5117 13.0117Z" fill="white"/>
</svg>
